<svg width="35" height="35" viewBox="0 0 35 35" fill="none" xmlns="http://www.w3.org/2000/svg">
<path d="M11.6667 17.5H17.5H11.6667ZM17.5 17.5H23.3333H17.5ZM17.5 17.5V23.3333V17.5ZM17.5 17.5V11.6667V17.5ZM17.5 30.625C10.2513 30.625 4.375 24.7488 4.375 17.5C4.375 10.2513 10.2513 4.375 17.5 4.375C24.7488 4.375 30.625 10.2513 30.625 17.5C30.625 24.7488 24.7488 30.625 17.5 30.625Z" fill="#00B200"/>
<path d="M11.6667 17.5H17.5M17.5 17.5H23.3333M17.5 17.5V23.3333M17.5 17.5V11.6667M17.5 30.625C10.2513 30.625 4.375 24.7488 4.375 17.5C4.375 10.2513 10.2513 4.375 17.5 4.375C24.7488 4.375 30.625 10.2513 30.625 17.5C30.625 24.7488 24.7488 30.625 17.5 30.625Z" stroke="#F4F8FB" stroke-width="2" stroke-linecap="round" stroke-linejoin="round"/>
</svg>
